<svg width="512" height="512" viewBox="0 0 512 512" xmlns="http://www.w3.org/2000/svg">
  <defs>
    <radialGradient id="sky" cx="50%" cy="40%" r="70%">
      <stop offset="0%" stop-color="#0b1118"/>
      <stop offset="100%" stop-color="#1a2533"/>
    </radialGradient>
  </defs>

  <!-- Night sky background -->
  <circle cx="256" cy="256" r="240" fill="url(#sky)"/>

  <!-- Crescent moon -->
  <path d="M330 140 A120 120 0 1 1 210 372 A90 90 0 1 0 330 140Z" fill="#f5f5f5"/>

  <!-- Mountains -->
  <path d="M80 320 Q256 260 432 320 L432 340 L80 340Z" fill="#dce3e9" opacity="0.25"/>

  <!-- Trees -->
  <path d="M140 310 L150 270 L160 310Z M180 310 L190 280 L200 310Z" fill="#f5f5f5"/>

  <!-- Lake reflection -->
  <rect x="80" y="340" width="352" height="40" fill="#1a2533" opacity="0.6"/>

  <!-- Stars -->
  <circle cx="360" cy="120" r="3" fill="#f5f5f5"/>
  <circle cx="380" cy="160" r="2" fill="#f5f5f5"/>
  <circle cx="340" cy="180" r="2" fill="#f5f5f5"/>

  <!-- Text -->
  <text x="256" y="460" text-anchor="middle" font-family="Georgia, serif" font-size="36" fill="#f5f5f5" letter-spacing="2">
    NORTHWILD
  </text>
  <text x="256" y="490" text-anchor="middle" font-family="Georgia, serif" font-size="20" fill="#f5f5f5" letter-spacing="4">
    MOONCREST
  </text>
</svg>
